:FULLY-SPECIFIED
:FORCE-ALL-JOINTS-BE-3DOF
:DEGREES
645
root 5.60737 16.4557 -2.81385 15.2988 12.8548 -0.847463
lfemur -15.8301 21.9053 -26.3563
ltibia 35.3467 -0 0
lfoot -35.7202 12.2624 -0.00092936
ltoes 22.7411 -0 0
rfemur -56.5977 -26.7278 29.8206
rtibia 66.2035 -0 0
rfoot -3.65896 -2.44296 0.122879
rtoes 0.734507 -0 0
lowerback -0.788047 -3.79105 -4.87881
upperback -2.06308 -5.06159 0.530402
thorax -1.2135 -2.46211 3.26014
lowerneck -9.90422 -7.38526 -0.0572634
upperneck 6.63971 -10.4903 6.06988
head 4.11808 -4.86452 1.28227
lclavicle -3.79679e-14 -7.95139e-15 0
lhumerus -36.8463 -66.8799 118.198
lradius 72.3656 -0 0
lwrist 23.6723 0 0
lhand -6.5468 2.21764 0.043002
lfingers 7.12502 -0 0
lthumb 19.3055 31.2645 0.0373591
rclavicle -3.79679e-14 -7.95139e-15 0
rhumerus -29.6954 -0.651764 -72.9913
rradius 71.9769 -0 0
rwrist -25.5803 0 0
rhand -29.6295 -42.1504 -0.0268079
rfingers 7.12502 -0 0
rthumb -2.95967 -72.109 -0.0259055
646
root 5.59515 16.4291 -2.76028 15.6663 11.8522 -0.652855
lfemur -16.0444 22.3046 -26.7145
ltibia 35.5736 -0 0
lfoot -35.9193 12.2679 -0.000853487
ltoes 22.4009 -0 0
rfemur -57.4279 -27.2691 30.7064
rtibia 66.4577 -0 0
rfoot -4.32862 -2.65759 0.112837
rtoes 1.0565 -0 0
lowerback -0.760181 -3.82588 -5.02208
upperback -2.02713 -5.11065 0.396588
thorax -1.18783 -2.48681 3.20193
lowerneck -9.87449 -7.37333 -0.131023
upperneck 6.13573 -10.4471 6.25944
head 3.98436 -4.85392 1.37292
lclavicle -3.79679e-14 -7.95139e-15 0
lhumerus -37.7541 -67.5094 119.267
lradius 72.4778 -0 0
lwrist 23.8559 0 0
lhand -6.31649 2.43598 0.0394908
lfingers 7.12502 -0 0
lthumb 19.527 31.4617 0.0343088
rclavicle -3.79679e-14 -7.95139e-15 0
rhumerus -31.4205 -1.31528 -73.5575
rradius 70.3136 -0 0
rwrist -24.2474 0 0
rhand -29.5931 -43.0103 -0.0246158
rfingers 7.12502 -0 0
rthumb -2.92444 -72.9694 -0.0237872
647
root 5.58293 16.4026 -2.70672 16.0291 10.8484 -0.465482
lfemur -16.2621 22.7028 -27.0753
ltibia 35.8006 -0 0
lfoot -36.1184 12.2733 -0.000758648
ltoes 22.0606 -0 0
rfemur -58.2715 -27.7989 31.6053
rtibia 66.712 -0 0
rfoot -4.99823 -2.87209 0.100287
rtoes 1.3785 -0 0
lowerback -0.732227 -3.86064 -5.16537
upperback -1.99106 -5.15963 0.262733
thorax -1.16215 -2.51148 3.1437
lowerneck -9.84478 -7.36135 -0.204774
upperneck 5.63197 -10.4023 6.44858
head 3.85067 -4.84311 1.46354
lclavicle -3.79679e-14 -7.95139e-15 0
lhumerus -38.7179 -68.1321 120.391
lradius 72.5899 -0 0
lwrist 24.0394 0 0
lhand -6.08619 2.65431 0.035102
lfingers 7.12502 -0 0
lthumb 19.7485 31.6589 0.030496
rclavicle -3.79679e-14 -7.95139e-15 0
rhumerus -33.1396 -1.9955 -74.1037
rradius 68.6503 -0 0
rwrist -22.9144 0 0
rhand -29.5566 -43.8702 -0.0218766
rfingers 7.12502 -0 0
rthumb -2.88926 -73.8299 -0.0211402
648
root 5.57071 16.376 -2.65315 16.3874 9.84355 -0.285161
lfemur -16.4831 23.0996 -27.4389
ltibia 36.0275 -0 0
lfoot -36.3175 12.2788 -0.000644843
ltoes 21.7204 -0 0
rfemur -59.1285 -28.3167 32.5173
rtibia 66.9662 -0 0
rfoot -5.66779 -3.08643 0.0852312
rtoes 1.7005 -0 0
lowerback -0.704185 -3.89532 -5.30868
upperback -1.95488 -5.20852 0.128837
thorax -1.13643 -2.53612 3.08546
lowerneck -9.81509 -7.34935 -0.278516
upperneck 5.12844 -10.3558 6.63729
head 3.71699 -4.83209 1.55413
lclavicle -3.79679e-14 -7.95139e-15 0
lhumerus -39.742 -68.7473 121.576
lradius 72.702 -0 0
lwrist 24.223 0 0
lhand -5.85591 2.87261 0.0298358
lfingers 7.12502 -0 0
lthumb 19.97 31.8561 0.0259209
rclavicle -3.79679e-14 -7.95139e-15 0
rhumerus -34.853 -2.69177 -74.6294
rradius 66.9871 -0 0
rwrist -21.5815 0 0
rhand -29.5202 -44.7301 -0.0185909
rfingers 7.12502 -0 0
rthumb -2.85411 -74.6903 -0.0179651
649
root 5.55849 16.3494 -2.59959 16.7415 8.83757 -0.111723
lfemur -16.7076 23.4952 -27.8052
ltibia 36.2544 -0 0
lfoot -36.5167 12.2842 -0.000512074
ltoes 21.3802 -0 0
rfemur -59.9991 -28.8224 33.4425
rtibia 67.2205 -0 0
rfoot -6.33729 -3.30058 0.0676717
rtoes 2.0225 -0 0
lowerback -0.676055 -3.92994 -5.45202
upperback -1.91858 -5.25733 -0.00510096
thorax -1.11069 -2.56074 3.02721
lowerneck -9.78541 -7.3373 -0.352251
upperneck 4.62514 -10.3077 6.82554
head 3.58333 -4.82086 1.64469
lclavicle -3.79679e-14 -7.95139e-15 0
lhumerus -40.8309 -69.3545 122.825
lradius 72.8141 -0 0
lwrist 24.4066 0 0
lhand -5.62566 3.09089 0.0236923
lfingers 7.12502 -0 0
lthumb 20.1915 32.0533 0.0205836
rclavicle -3.79679e-14 -7.95139e-15 0
rhumerus -36.561 -3.40341 -75.1344
rradius 65.3238 -0 0
rwrist -20.2485 0 0
rhand -29.4839 -45.5901 -0.0147595
rfingers 7.12502 -0 0
rthumb -2.81902 -75.5507 -0.0142626
650
root 5.54627 16.3228 -2.54602 17.0915 7.83056 0.0549917
lfemur -16.9355 23.8894 -28.1743
ltibia 36.4813 -0 0
lfoot -36.7158 12.2897 -0.000360342
ltoes 21.04 -0 0
rfemur -60.8831 -29.3155 34.381
rtibia 67.4747 -0 0
rfoot -7.00672 -3.51451 0.0476112
rtoes 2.34449 -0 0
lowerback -0.647837 -3.96449 -5.59538
upperback -1.88216 -5.30606 -0.13908
thorax -1.08493 -2.58533 2.96895
lowerneck -9.75575 -7.32521 -0.425977
upperneck 4.12208 -10.258 7.01333
head 3.44969 -4.80942 1.73523
lclavicle -3.79679e-14 -7.95139e-15 0
lhumerus -41.9894 -69.9527 124.143
lradius 72.9263 -0 0
lwrist 24.5902 0 0
lhand -5.39543 3.30914 0.0166717
lfingers 7.12502 -0 0
lthumb 20.4129 32.2504 0.0144842
rclavicle -3.79679e-14 -7.95139e-15 0
rhumerus -38.2641 -4.12974 -75.6183
rradius 63.6605 -0 0
rwrist -18.9156 0 0
rhand -29.4476 -46.45 -0.0103832
rfingers 7.12502 -0 0
rthumb -2.78399 -76.4112 -0.0100336
651
root 5.53405 16.2962 -2.49246 17.4379 6.82256 0.21513
lfemur -17.1668 24.2822 -28.5462
ltibia 36.7082 -0 0
lfoot -36.9149 12.2951 -0.00018965
ltoes 20.6997 -0 0
rfemur -61.7805 -29.7959 35.3325
rtibia 67.729 -0 0
rfoot -7.67607 -3.72819 0.0250529
rtoes 2.66649 -0 0
lowerback -0.619531 -3.99896 -5.73876
upperback -1.84562 -5.3547 -0.273101
thorax -1.05914 -2.6099 2.91067
lowerneck -9.7261 -7.31309 -0.499695
upperneck 3.61927 -10.2067 7.20064
head 3.31608 -4.79776 1.82573
lclavicle -3.79679e-14 -7.95139e-15 0
lhumerus -43.2228 -70.5413 125.536
lradius 73.0384 -0 0
lwrist 24.7737 0 0
lhand -5.16523 3.52737 0.00877416
lfingers 7.12502 -0 0
lthumb 20.6344 32.4475 0.00762298
rclavicle -3.79679e-14 -7.95139e-15 0
rhumerus -39.9626 -4.87008 -76.0808
rradius 61.9973 -0 0
rwrist -17.5826 0 0
rhand -29.4114 -47.3099 -0.00546298
rfingers 7.12502 -0 0
rthumb -2.74903 -77.2716 -0.00527907
652
root 5.52183 16.2696 -2.43889 17.7807 5.81363 0.36883
lfemur -17.4017 24.6737 -28.9211
ltibia 36.9351 0 0
lfoot -37.114 12.3006 0
ltoes 20.3595 0 0
rfemur -62.6914 -30.2631 36.2973
rtibia 67.9832 0 0
rfoot -8.34533 -3.94159 0
rtoes 2.98849 0 0
lowerback -0.591138 -4.03337 -5.88217
upperback -1.80897 -5.40325 -0.407164
thorax -1.03332 -2.63444 2.85238
lowerneck -9.69647 -7.30093 -0.573404
upperneck 3.11671 -10.1537 7.38745
head 3.18248 -4.7859 1.91621
lclavicle -3.79679e-14 -7.95139e-15 0
lhumerus -44.5367 -71.1192 127.009
lradius 73.1505 0 0
lwrist 24.9573 0 0
lhand -4.93506 3.74556 0
lfingers 7.12502 0 0
lthumb 20.8558 32.6446 0
rclavicle -3.79679e-14 -7.95139e-15 0
rhumerus -41.6572 -5.62375 -76.5216
rradius 60.334 0 0
rwrist -16.2497 0 0
rhand -29.3753 -48.1698 0
rfingers 7.12502 0 0
rthumb -2.71414 -798.132 0
653
root 5.51646 16.2518 -2.31548 17.7482 4.82889 0.378675
lfemur -17.8984 24.8041 -28.5606
ltibia 38.9637 -0 0
lfoot -35.2044 11.5645 -0.2565
ltoes 19.429 -0 0
rfemur -61.8551 -29.6884 35.8829
rtibia 67.9473 -0 0
rfoot -9.08024 -4.1204 0.0230696
rtoes 2.95491 -0 0
lowerback -0.601712 -4.15149 -5.63111
upperback -1.81815 -5.55911 -0.337023
thorax -1.04843 -2.71491 2.7847
lowerneck -9.72369 -7.16145 -0.527832
upperneck 3.05116 -9.9532 7.16078
head 3.14342 -4.69602 1.84733
lclavicle 1.53064e-14 -6.75868e-15 0
lhumerus -42.7543 -71.3104 125.077
lradius 73.7718 -0 0
lwrist 25.098 0 0
lhand -5.26544 3.56036 0.0106943
lfingers 7.12502 -0 0
lthumb 20.5378 32.4878 0.00871243
rclavicle 1.53064e-14 -6.75868e-15 0
rhumerus -42.016 -6.05151 -75.333
rradius 60.6117 -0 0
rwrist -16.4342 0 0
rhand -29.2869 -48.1785 -0.000133935
rfingers 7.12502 -0 0
rthumb -2.62872 -78.1414 -0.000140573
654
root 5.51109 16.234 -2.19207 17.7156 3.84416 0.389066
lfemur -18.3946 24.9374 -28.2009
ltibia 40.9922 -0 0
lfoot -33.2917 10.8203 -0.488309
ltoes 18.4984 -0 0
rfemur -61.0282 -29.1086 35.4805
rtibia 67.9113 -0 0
rfoot -9.81522 -4.29949 0.0438437
rtoes 2.92133 -0 0
lowerback -0.612807 -4.26956 -5.38
upperback -1.82752 -5.71497 -0.266837
thorax -1.06345 -2.79539 2.71704
lowerneck -9.75079 -7.02195 -0.482341
upperneck 2.98484 -9.75296 6.93401
head 3.10425 -4.60619 1.77839
lclavicle 1.53064e-14 -6.75868e-15 0
lhumerus -40.9357 -71.4819 123.11
lradius 74.3932 -0 0
lwrist 25.2387 0 0
lhand -5.59585 3.37511 0.0203206
lfingers 7.12502 -0 0
lthumb 20.2199 32.331 0.0165546
rclavicle 1.53064e-14 -6.75868e-15 0
rhumerus -42.384 -6.47175 -74.1407
rradius 60.8894 -0 0
rwrist -16.6187 0 0
rhand -29.1984 -48.1872 -0.000254478
rfingers 7.12502 -0 0
rthumb -2.54329 -78.1509 -0.000267089
655
root 5.50572 16.2162 -2.06866 17.6829 2.85944 0.400008
lfemur -18.8905 25.0735 -27.8422
ltibia 43.0208 -0 0
lfoot -31.376 10.0687 -0.69513
ltoes 17.5679 -0 0
rfemur -60.2107 -28.5239 35.0899
rtibia 67.8754 -0 0
rfoot -10.5503 -4.47883 0.0623187
rtoes 2.88774 -0 0
lowerback -0.624422 -4.38758 -5.12882
upperback -1.83708 -5.87081 -0.196607
thorax -1.07837 -2.8759 2.6494
lowerneck -9.77777 -6.88243 -0.436929
upperneck 2.91776 -9.55298 6.70715
head 3.06498 -4.5164 1.7094
lclavicle 1.53064e-14 -6.75868e-15 0
lhumerus -39.0842 -71.6333 121.109
lradius 75.0145 -0 0
lwrist 25.3794 0 0
lhand -5.92629 3.1898 0.0288783
lfingers 7.12502 -0 0
lthumb 19.9019 32.1741 0.0235261
rclavicle 1.53064e-14 -6.75868e-15 0
rhumerus -42.761 -6.88429 -72.9447
rradius 61.1671 -0 0
rwrist -16.8033 0 0
rhand -29.11 -48.1958 -0.000361627
rfingers 7.12502 -0 0
rthumb -2.45787 -78.1603 -0.000379549
